<svg width="78" height="10" viewBox="0 0 78 10" fill="none" xmlns="http://www.w3.org/2000/svg">
<path d="M0.791016 8.85352C0.791016 8.70117 0.867188 8.62695 1.01953 8.63086C1.33203 8.61523 1.58398 8.54883 1.77539 8.43164C1.9668 8.31445 2.10352 8.09961 2.18555 7.78711L3.7207 1.60547C3.75195 1.49219 3.76758 1.41797 3.76758 1.38281C3.76758 1.29297 3.71094 1.23633 3.59766 1.21289C3.48828 1.18945 3.3125 1.17773 3.07031 1.17773C2.98047 1.17773 2.91797 1.17578 2.88281 1.17188C2.84766 1.16797 2.81641 1.15625 2.78906 1.13672C2.76172 1.11328 2.74805 1.07812 2.74805 1.03125C2.74805 0.925781 2.77148 0.861328 2.81836 0.837891C2.86914 0.814453 2.95312 0.802734 3.07031 0.802734H4.66992C4.82227 0.802734 4.91406 0.816406 4.94531 0.84375C4.97656 0.867188 4.99609 0.941406 5.00391 1.06641L5.67773 7.79883L9.75586 1.01953C9.81836 0.914062 9.87109 0.851562 9.91406 0.832031C9.96094 0.8125 10.0527 0.802734 10.1895 0.802734H11.7246C11.8027 0.802734 11.8594 0.804687 11.8945 0.808594C11.9336 0.8125 11.9648 0.828125 11.9883 0.855469C12.0117 0.878906 12.0234 0.914062 12.0234 0.960938C12.0234 1.05859 12 1.11914 11.9531 1.14258C11.9062 1.16602 11.8105 1.17773 11.666 1.17773C11.2988 1.17773 11.0605 1.20703 10.9512 1.26562C10.8418 1.32422 10.7637 1.45508 10.7168 1.6582L9.09375 8.15039C9.0625 8.27148 9.04688 8.36328 9.04688 8.42578C9.04688 8.47266 9.05469 8.50781 9.07031 8.53125C9.08594 8.55469 9.14844 8.57812 9.25781 8.60156C9.36719 8.62109 9.5293 8.63086 9.74414 8.63086C9.8418 8.63086 9.9082 8.63281 9.94336 8.63672C9.97852 8.64062 10.0078 8.6543 10.0312 8.67773C10.0547 8.70117 10.0664 8.73633 10.0664 8.7832C10.0664 8.92773 9.99023 9 9.83789 9C9.69336 9 9.46289 8.99414 9.14648 8.98242C8.83398 8.9707 8.60156 8.96484 8.44922 8.96484C8.29688 8.96484 8.06641 8.9707 7.75781 8.98242C7.44922 8.99414 7.22266 9 7.07812 9C6.96484 9 6.91016 8.95117 6.91406 8.85352C6.91406 8.74805 6.9375 8.68555 6.98438 8.66602C7.03125 8.64258 7.11523 8.63086 7.23633 8.63086C7.62695 8.63086 7.87695 8.60156 7.98633 8.54297C8.0957 8.48047 8.17383 8.33984 8.2207 8.12109L9.91406 1.33008H9.90234L5.42578 8.7832C5.34766 8.92773 5.25195 9 5.13867 9C5.08398 9 5.04102 8.98828 5.00977 8.96484C4.98242 8.94141 4.96484 8.91602 4.95703 8.88867C4.94922 8.85742 4.94141 8.79883 4.93359 8.71289L4.20117 1.44141H4.18945L2.58984 7.81055C2.55859 7.93945 2.54297 8.03906 2.54297 8.10938C2.54297 8.17188 2.54883 8.22656 2.56055 8.27344C2.57227 8.31641 2.59766 8.36719 2.63672 8.42578C2.67969 8.48047 2.75195 8.52539 2.85352 8.56055C2.95898 8.5957 3.0918 8.61914 3.25195 8.63086C3.4043 8.63086 3.48047 8.68164 3.48047 8.7832C3.48047 8.92773 3.4082 9 3.26367 9C3.14258 9 2.94727 8.99414 2.67773 8.98242C2.41211 8.9707 2.21484 8.96484 2.08594 8.96484C1.96094 8.96484 1.76953 8.9707 1.51172 8.98242C1.25781 8.99414 1.07031 9 0.949219 9C0.84375 9 0.791016 8.95117 0.791016 8.85352ZM12.5332 6.16992C12.5332 5.26758 12.7715 4.37891 13.248 3.50391C13.7246 2.625 14.3477 1.91211 15.1172 1.36523C15.8906 0.814453 16.6777 0.539062 17.4785 0.539062C18.2637 0.539062 18.916 0.822266 19.4355 1.38867C19.9551 1.95117 20.2148 2.71289 20.2148 3.67383C20.2148 4.61133 19.9727 5.51562 19.4883 6.38672C19.0039 7.25781 18.3809 7.95508 17.6191 8.47852C16.8613 9.00195 16.0859 9.26367 15.293 9.26367C14.4766 9.26367 13.8125 8.97656 13.3008 8.40234C12.7891 7.82422 12.5332 7.08008 12.5332 6.16992ZM13.6113 6.53906C13.6113 7.25781 13.7695 7.83984 14.0859 8.28516C14.4023 8.73047 14.832 8.95312 15.375 8.95312C15.8398 8.95312 16.3203 8.77539 16.8164 8.41992C17.3125 8.06445 17.748 7.5625 18.123 6.91406C18.4355 6.37891 18.6914 5.75586 18.8906 5.04492C19.0938 4.33008 19.1953 3.70508 19.1953 3.16992C19.1953 2.4082 19.0215 1.83008 18.6738 1.43555C18.3262 1.03711 17.9004 0.837891 17.3965 0.837891C16.8848 0.837891 16.375 1.02734 15.8672 1.40625C15.3633 1.78125 14.9473 2.25977 14.6191 2.8418C14.252 3.48242 13.9922 4.15234 13.8398 4.85156C13.6875 5.55078 13.6113 6.11328 13.6113 6.53906ZM20.7012 8.85352C20.7012 8.74805 20.7246 8.68555 20.7715 8.66602C20.8223 8.64258 20.9062 8.63086 21.0234 8.63086C21.4141 8.63086 21.6641 8.60156 21.7734 8.54297C21.8828 8.48047 21.9609 8.33984 22.0078 8.12109L23.6309 1.60547C23.6621 1.49219 23.6777 1.41797 23.6777 1.38281C23.6777 1.29297 23.6211 1.23633 23.5078 1.21289C23.3984 1.18945 23.2227 1.17773 22.9805 1.17773C22.8906 1.17773 22.8281 1.17578 22.793 1.17188C22.7578 1.16797 22.7266 1.15625 22.6992 1.13672C22.6719 1.11328 22.6582 1.07812 22.6582 1.03125C22.6582 0.925781 22.6816 0.861328 22.7285 0.837891C22.7754 0.814453 22.8594 0.802734 22.9805 0.802734H26.7246C27.4941 0.802734 28.1055 1.07617 28.5586 1.62305C29.0156 2.16602 29.2441 2.87305 29.2441 3.74414C29.2441 4.62305 29.0234 5.4707 28.582 6.28711C28.1445 7.10352 27.5703 7.75977 26.8594 8.25586C26.1523 8.75195 25.4277 9 24.6855 9H21C20.9219 9 20.8652 8.99805 20.8301 8.99414C20.7988 8.99023 20.7695 8.97852 20.7422 8.95898C20.7148 8.93555 20.7012 8.90039 20.7012 8.85352ZM22.8984 8.36133C22.8828 8.42773 22.875 8.47656 22.875 8.50781C22.875 8.53906 22.8789 8.5625 22.8867 8.57812C22.8945 8.59375 22.9258 8.60742 22.9805 8.61914C23.0352 8.62695 23.123 8.63086 23.2441 8.63086H24.4805C25.4023 8.63086 26.2031 8.23438 26.8828 7.44141C27.332 6.91406 27.6719 6.21875 27.9023 5.35547C28.1328 4.48828 28.248 3.79883 28.248 3.28711C28.248 2.56055 28.0645 2.02734 27.6973 1.6875C27.3301 1.34766 26.875 1.17773 26.332 1.17773H25.166C24.959 1.17773 24.8203 1.19922 24.75 1.24219C24.6836 1.28516 24.627 1.40625 24.5801 1.60547L22.9219 8.24414C22.9219 8.25195 22.9141 8.29102 22.8984 8.36133ZM29.748 8.85352C29.748 8.74805 29.7715 8.68555 29.8184 8.66602C29.8691 8.64258 29.9531 8.63086 30.0703 8.63086C30.4609 8.63086 30.7109 8.60156 30.8203 8.54297C30.9297 8.48047 31.0078 8.33984 31.0547 8.12109L32.666 1.69336C32.6973 1.57227 32.7129 1.48047 32.7129 1.41797C32.7129 1.37109 32.7051 1.33594 32.6895 1.3125C32.6738 1.28516 32.6113 1.26172 32.502 1.24219C32.3926 1.22266 32.2305 1.21289 32.0156 1.21289C31.918 1.21289 31.8516 1.21094 31.8164 1.20703C31.7812 1.20312 31.752 1.18945 31.7285 1.16602C31.7051 1.14258 31.6934 1.10547 31.6934 1.05469C31.6934 0.957031 31.7168 0.896484 31.7637 0.873047C31.8105 0.849609 31.8945 0.837891 32.0156 0.837891H37.6172C37.6953 0.837891 37.7461 0.839844 37.7695 0.84375C37.8008 0.84375 37.8359 0.855469 37.875 0.878906C37.9062 0.894531 37.9219 0.917969 37.9219 0.949219C37.9219 0.957031 37.9199 0.964844 37.916 0.972656C37.9043 1.01172 37.9023 1.07227 37.9102 1.1543L37.6348 3.27539C37.627 3.35352 37.6172 3.41016 37.6055 3.44531C37.5977 3.47656 37.5801 3.5 37.5527 3.51562C37.5254 3.53125 37.4844 3.53906 37.4297 3.53906C37.3086 3.53906 37.248 3.49219 37.248 3.39844C37.248 3.34375 37.2559 3.27539 37.2715 3.19336C37.3105 2.87305 37.3301 2.61719 37.3301 2.42578C37.3301 1.97656 37.2207 1.66211 37.002 1.48242C36.7832 1.30273 36.3613 1.21289 35.7363 1.21289H34.2363C34.0293 1.21289 33.8926 1.23242 33.8262 1.27148C33.7637 1.31055 33.709 1.42578 33.6621 1.61719L32.9297 4.57031H33.9023C34.375 4.57031 34.7012 4.49414 34.8809 4.3418C35.0605 4.18945 35.209 3.89453 35.3262 3.45703C35.373 3.28125 35.418 3.18945 35.4609 3.18164C35.4844 3.17383 35.5156 3.16992 35.5547 3.16992C35.6836 3.16992 35.748 3.2168 35.748 3.31055C35.748 3.3418 35.7363 3.39453 35.7129 3.46875L35.0508 6.10547C35.0273 6.21094 35.0039 6.27734 34.9805 6.30469C34.957 6.33203 34.9082 6.3457 34.834 6.3457C34.7051 6.3457 34.6426 6.29883 34.6465 6.20508C34.6465 6.18945 34.6504 6.16602 34.6582 6.13477C34.666 6.09961 34.6699 6.07812 34.6699 6.07031C34.7402 5.80469 34.7754 5.60156 34.7754 5.46094C34.7754 5.27734 34.7188 5.14648 34.6055 5.06836C34.4961 4.98633 34.252 4.94531 33.873 4.94531H32.8301L32.0039 8.24414C32.0039 8.25195 31.9961 8.29102 31.9805 8.36133C31.9648 8.42773 31.957 8.47656 31.957 8.50781C31.957 8.53906 31.9609 8.5625 31.9688 8.57812C31.9766 8.59375 32.0078 8.60742 32.0625 8.61914C32.1211 8.62695 32.209 8.63086 32.3262 8.63086H33.791C34.166 8.63086 34.4941 8.5957 34.7754 8.52539C35.0566 8.45117 35.291 8.36133 35.4785 8.25586C35.666 8.15039 35.8418 7.98438 36.0059 7.75781C36.1699 7.53125 36.3047 7.31055 36.4102 7.0957C36.5195 6.87695 36.6543 6.57617 36.8145 6.19336C36.8691 6.05664 36.9082 5.97461 36.9316 5.94727C36.959 5.91992 37.0039 5.90625 37.0664 5.90625C37.1875 5.90625 37.248 5.94922 37.248 6.03516C37.248 6.06641 37.2324 6.11523 37.2012 6.18164L36.1348 8.80664C36.0957 8.89648 36.0586 8.95117 36.0234 8.9707C35.9922 8.99023 35.916 9 35.7949 9H30.0469C29.9688 9 29.9121 8.99805 29.877 8.99414C29.8457 8.99023 29.8164 8.97852 29.7891 8.95898C29.7617 8.93555 29.748 8.90039 29.748 8.85352ZM38.0273 9.14648C38.0273 9.13086 38.0391 9.07812 38.0625 8.98828L38.6836 6.48047C38.707 6.39062 38.7305 6.33398 38.7539 6.31055C38.7812 6.28711 38.8301 6.27539 38.9004 6.27539C39.0215 6.27539 39.082 6.32031 39.082 6.41016C39.082 6.41797 39.0801 6.42969 39.0762 6.44531C39.0723 6.46094 39.0703 6.47266 39.0703 6.48047C39.0078 6.71094 38.9746 6.95508 38.9707 7.21289C38.9707 7.78711 39.1445 8.21094 39.4922 8.48438C39.8438 8.75781 40.2715 8.89453 40.7754 8.89453C41.2949 8.89453 41.7578 8.65234 42.1641 8.16797C42.5742 7.68359 42.7793 7.16016 42.7793 6.59766C42.7793 6.24609 42.6914 5.95898 42.5156 5.73633C42.418 5.63086 42.3184 5.55664 42.2168 5.51367C42.1191 5.4707 41.9102 5.40039 41.5898 5.30273L40.998 5.13867C40.709 5.06055 40.5371 5.00781 40.4824 4.98047C39.8457 4.68359 39.5273 4.16016 39.5273 3.41016C39.5273 2.69922 39.8105 2.04297 40.377 1.44141C40.9434 0.839844 41.5859 0.539062 42.3047 0.539062C43.0273 0.539062 43.5488 0.810547 43.8691 1.35352L44.4082 0.685547C44.4863 0.587891 44.5469 0.539062 44.5898 0.539062C44.6758 0.539062 44.7188 0.576172 44.7188 0.650391C44.7188 0.705078 44.7109 0.763672 44.6953 0.826172L44.0742 3.31055C44.0508 3.4082 44.0254 3.46875 43.998 3.49219C43.9746 3.51562 43.9277 3.52734 43.8574 3.52734C43.7363 3.52734 43.6758 3.48828 43.6758 3.41016L43.6875 3.24023C43.7266 3.01758 43.7461 2.79688 43.7461 2.57812C43.7461 2.07422 43.6328 1.66602 43.4062 1.35352C43.1797 1.03711 42.8066 0.878906 42.2871 0.878906C41.7832 0.878906 41.332 1.0957 40.9336 1.5293C40.5391 1.95898 40.3418 2.42578 40.3418 2.92969C40.3418 3.45703 40.5449 3.80859 40.9512 3.98438C41.041 4.01562 41.2617 4.08008 41.6133 4.17773C42.2148 4.35352 42.5918 4.47852 42.7441 4.55273C42.9004 4.62305 43.0508 4.74609 43.1953 4.92188C43.4609 5.25 43.5938 5.6582 43.5938 6.14648C43.5938 6.92383 43.3047 7.63867 42.7266 8.29102C42.1523 8.93945 41.4922 9.26367 40.7461 9.26367C39.8984 9.26367 39.2871 8.98828 38.9121 8.4375C38.6973 8.72656 38.5098 8.95312 38.3496 9.11719C38.2715 9.21484 38.207 9.26367 38.1562 9.26367C38.0703 9.26367 38.0273 9.22461 38.0273 9.14648ZM45.9727 3.44531C45.9727 3.41406 45.9941 3.3457 46.0371 3.24023L46.7402 1.08984C46.7715 0.984375 46.8047 0.923828 46.8398 0.908203C46.8789 0.888672 46.9629 0.878906 47.0918 0.878906H53.2441C53.3223 0.878906 53.377 0.880859 53.4082 0.884766C53.4434 0.888672 53.4746 0.900391 53.502 0.919922C53.5332 0.939453 53.5488 0.972656 53.5488 1.01953C53.5488 1.08984 53.5449 1.14258 53.5371 1.17773L53.1738 3.32227C53.1582 3.43555 53.1387 3.50586 53.1152 3.5332C53.0918 3.56055 53.0391 3.57422 52.957 3.57422C52.8359 3.57422 52.7773 3.52344 52.7812 3.42188C52.7812 3.39062 52.7891 3.33008 52.8047 3.24023C52.8828 2.76758 52.9219 2.4082 52.9219 2.16211C52.9219 1.78711 52.8242 1.54102 52.6289 1.42383C52.4336 1.30664 52.0234 1.24805 51.3984 1.24805C51.0469 1.24805 50.8398 1.25586 50.7773 1.27148C50.6484 1.28711 50.5547 1.41992 50.4961 1.66992L48.8906 8.12109C48.8594 8.23438 48.8438 8.31055 48.8438 8.34961C48.8438 8.43945 48.8672 8.5 48.9141 8.53125C48.9609 8.5625 49.0684 8.58594 49.2363 8.60156C49.2441 8.60156 49.2832 8.60352 49.3535 8.60742C49.4277 8.61133 49.5137 8.61719 49.6113 8.625C49.709 8.62891 49.7852 8.63086 49.8398 8.63086H50.0215C50.2207 8.63086 50.3203 8.67383 50.3203 8.75977C50.3203 8.91992 50.2363 9 50.0684 9C49.8691 9 49.5566 8.99414 49.1309 8.98242C48.7051 8.9707 48.3887 8.96484 48.1816 8.96484C47.9824 8.96484 47.6738 8.9707 47.2559 8.98242C46.8418 8.99414 46.5312 9 46.3242 9C46.1875 9 46.1191 8.95117 46.1191 8.85352C46.1191 8.74805 46.1445 8.68555 46.1953 8.66602C46.25 8.64258 46.3359 8.63086 46.4531 8.63086H46.6465C47.1504 8.63086 47.4746 8.59766 47.6191 8.53125C47.7637 8.46094 47.8633 8.3125 47.918 8.08594L49.5293 1.64648C49.5605 1.54883 49.5762 1.46094 49.5762 1.38281C49.5762 1.35156 49.5723 1.32813 49.5645 1.3125C49.5566 1.29297 49.5312 1.27734 49.4883 1.26562C49.4492 1.25391 49.3867 1.24805 49.3008 1.24805H48.8906C48.1133 1.24805 47.5801 1.36328 47.291 1.59375C47.0059 1.82031 46.7227 2.35352 46.4414 3.19336C46.3633 3.40039 46.3125 3.51562 46.2891 3.53906C46.2656 3.5625 46.2207 3.57422 46.1543 3.57422C46.0332 3.57812 45.9727 3.53516 45.9727 3.44531ZM53.209 8.85352C53.209 8.74805 53.2324 8.68555 53.2793 8.66602C53.3301 8.64258 53.4141 8.63086 53.5312 8.63086C53.9219 8.63086 54.1719 8.60156 54.2812 8.54297C54.3906 8.48047 54.4688 8.33984 54.5156 8.12109L56.1387 1.60547C56.1699 1.49219 56.1855 1.41797 56.1855 1.38281C56.1855 1.29297 56.1289 1.23633 56.0156 1.21289C55.9062 1.18945 55.7305 1.17773 55.4883 1.17773C55.3984 1.17773 55.3359 1.17578 55.3008 1.17188C55.2656 1.16797 55.2344 1.15625 55.207 1.13672C55.1797 1.11328 55.166 1.07812 55.166 1.03125C55.166 0.925781 55.1895 0.861328 55.2363 0.837891C55.2832 0.814453 55.3672 0.802734 55.4883 0.802734H58.6582C59.3848 0.802734 59.9668 0.974609 60.4043 1.31836C60.8457 1.66211 61.0664 2.08203 61.0664 2.57812C61.0664 3.05078 60.8477 3.50977 60.4102 3.95508C59.9766 4.39648 59.3555 4.72266 58.5469 4.93359C58.8594 5.04688 59.1094 5.22461 59.2969 5.4668C59.4883 5.70898 59.584 5.99414 59.584 6.32227C59.584 6.53711 59.5508 6.89062 59.4844 7.38281C59.4375 7.79688 59.4141 8.09961 59.4141 8.29102C59.4141 8.44336 59.4219 8.56445 59.4375 8.6543C59.4531 8.74023 59.4902 8.82031 59.5488 8.89453C59.6113 8.96484 59.6973 9 59.8066 9C59.998 9 60.1758 8.90625 60.3398 8.71875C60.5078 8.53125 60.6426 8.27344 60.7441 7.94531C60.7598 7.89062 60.7715 7.85156 60.7793 7.82812C60.7871 7.80078 60.8047 7.7793 60.832 7.76367C60.8633 7.74805 60.9023 7.74023 60.9492 7.74023C61.0703 7.74023 61.1309 7.79297 61.1309 7.89844C61.1309 7.96875 61.0898 8.10156 61.0078 8.29688C60.9297 8.49219 60.7773 8.70312 60.5508 8.92969C60.3281 9.15234 60.0645 9.26367 59.7598 9.26367C59.3457 9.26367 58.9941 9.15625 58.7051 8.94141C58.416 8.72266 58.2715 8.40625 58.2715 7.99219C58.2715 7.86328 58.332 7.54297 58.4531 7.03125C58.5898 6.48828 58.6582 6.17188 58.6582 6.08203C58.6582 5.69141 58.5469 5.41797 58.3242 5.26172C58.1055 5.10547 57.8398 5.02734 57.5273 5.02734H56.2324L55.4531 8.18555C55.4219 8.29883 55.4062 8.37891 55.4062 8.42578C55.4062 8.47266 55.4141 8.50781 55.4297 8.53125C55.4453 8.55469 55.5059 8.57812 55.6113 8.60156C55.7207 8.62109 55.8848 8.63086 56.1035 8.63086C56.2012 8.63086 56.2676 8.63281 56.3027 8.63672C56.3379 8.64062 56.3672 8.6543 56.3906 8.67773C56.4141 8.70117 56.4258 8.73633 56.4258 8.7832C56.4258 8.92773 56.3496 9 56.1973 9C56.0371 9 55.7969 8.99414 55.4766 8.98242C55.1562 8.9707 54.9199 8.96484 54.7676 8.96484C54.6152 8.96484 54.3828 8.9707 54.0703 8.98242C53.7617 8.99414 53.5312 9 53.3789 9C53.2656 9 53.209 8.95117 53.209 8.85352ZM56.3027 4.76367H57.5156C58.2695 4.76367 58.8613 4.55664 59.291 4.14258C59.4824 3.95117 59.6367 3.69922 59.7539 3.38672C59.8711 3.07422 59.9395 2.83789 59.959 2.67773C59.9785 2.51758 59.9883 2.39258 59.9883 2.30273C59.9883 2.08789 59.9414 1.9043 59.8477 1.75195C59.7578 1.59961 59.6543 1.48828 59.5371 1.41797C59.4238 1.34375 59.2617 1.28711 59.0508 1.24805C58.8438 1.20898 58.6777 1.1875 58.5527 1.18359C58.4316 1.17969 58.2617 1.17773 58.043 1.17773C57.6367 1.17773 57.4062 1.18555 57.3516 1.20117C57.2305 1.23242 57.1426 1.36719 57.0879 1.60547L56.3027 4.76367ZM61.9043 8.83008C61.9043 8.72461 61.9473 8.66016 62.0332 8.63672C62.123 8.61328 62.2324 8.59961 62.3613 8.5957C62.4941 8.5918 62.6641 8.51172 62.8711 8.35547C63.082 8.19922 63.2832 7.96289 63.4746 7.64648L67.4004 0.732422C67.4082 0.724609 67.4219 0.701172 67.4414 0.662109C67.4609 0.619141 67.4805 0.587891 67.5 0.568359C67.5195 0.548828 67.543 0.523437 67.5703 0.492188C67.6016 0.460938 67.6348 0.439453 67.6699 0.427734C67.7051 0.416016 67.7422 0.410156 67.7812 0.410156C67.8125 0.410156 67.8398 0.412109 67.8633 0.416016C67.8906 0.419922 67.9121 0.431641 67.9277 0.451172C67.9434 0.470703 67.9551 0.484375 67.9629 0.492188C67.9707 0.5 67.9785 0.519531 67.9863 0.550781C67.9941 0.582031 67.998 0.601563 67.998 0.609375C67.998 0.617187 68.002 0.642578 68.0098 0.685547V0.744141L68.5254 8.19727C68.5332 8.38086 68.5762 8.49609 68.6543 8.54297C68.7363 8.58984 68.9023 8.61914 69.1523 8.63086C69.3672 8.63086 69.4746 8.68555 69.4746 8.79492C69.4746 8.93164 69.3945 9 69.2344 9C69.1953 9 69.0508 8.99414 68.8008 8.98242C68.5547 8.9707 68.2871 8.96484 67.998 8.96484C67.7246 8.96484 67.4863 8.9668 67.2832 8.9707C67.0801 8.97461 66.9277 8.98047 66.8262 8.98828C66.7285 8.99609 66.6719 9 66.6562 9C66.5352 9 66.4746 8.94336 66.4746 8.83008C66.4746 8.75195 66.5059 8.69727 66.5684 8.66602C66.6348 8.63086 66.7129 8.61719 66.8027 8.625C66.8965 8.62891 67.002 8.61914 67.1191 8.5957C67.2402 8.56836 67.3457 8.51953 67.4355 8.44922C67.498 8.39453 67.5293 8.28516 67.5293 8.12109C67.5293 8.07422 67.5234 7.97852 67.5117 7.83398C67.5 7.68945 67.4844 7.46875 67.4648 7.17188C67.4453 6.87109 67.4238 6.56055 67.4004 6.24023H64.6641C64.5938 6.36914 64.5156 6.50781 64.4297 6.65625C64.3438 6.80469 64.2754 6.92383 64.2246 7.01367C64.1738 7.09961 64.1172 7.19531 64.0547 7.30078C63.9961 7.40234 63.9512 7.48438 63.9199 7.54688C63.8887 7.60547 63.8535 7.66797 63.8145 7.73438C63.7793 7.80078 63.7539 7.85547 63.7383 7.89844C63.7227 7.9375 63.7051 7.97852 63.6855 8.02148C63.666 8.06445 63.6543 8.10156 63.6504 8.13281C63.6465 8.16016 63.6445 8.18945 63.6445 8.2207C63.6445 8.33398 63.6777 8.42188 63.7441 8.48438C63.8145 8.54688 63.8906 8.58203 63.9727 8.58984C64.0586 8.59766 64.1348 8.61719 64.2012 8.64844C64.2676 8.67578 64.3008 8.7168 64.3008 8.77148C64.3008 8.92383 64.2207 9 64.0605 9C64.0371 9 63.9785 8.99609 63.8848 8.98828C63.7949 8.98047 63.6699 8.97461 63.5098 8.9707C63.3496 8.9668 63.1777 8.96484 62.9941 8.96484C62.8418 8.96484 62.6719 8.9707 62.4844 8.98242C62.2969 8.99414 62.1914 9 62.168 9C61.9922 9 61.9043 8.94336 61.9043 8.83008ZM64.8809 5.88281H67.377L67.1133 1.95703L64.8809 5.88281ZM70.8574 8.85352C70.8574 8.74805 70.8809 8.68555 70.9277 8.66602C70.9785 8.64258 71.0625 8.63086 71.1797 8.63086C71.5703 8.63086 71.8203 8.60156 71.9297 8.54297C72.0391 8.48047 72.1172 8.33984 72.1641 8.12109L73.7871 1.60547C73.8184 1.49219 73.834 1.41797 73.834 1.38281C73.834 1.29297 73.7773 1.23633 73.6641 1.21289C73.5547 1.18945 73.3789 1.17773 73.1367 1.17773C73.0469 1.17773 72.9844 1.17578 72.9492 1.17188C72.9141 1.16797 72.8828 1.15625 72.8555 1.13672C72.8281 1.11328 72.8145 1.07812 72.8145 1.03125C72.8145 0.878906 72.8906 0.802734 73.043 0.802734C73.2031 0.802734 73.4473 0.808594 73.7754 0.820312C74.1035 0.832031 74.3516 0.837891 74.5195 0.837891C74.7031 0.837891 74.9805 0.832031 75.3516 0.820312C75.7227 0.808594 75.9961 0.802734 76.1719 0.802734C76.293 0.802734 76.3535 0.851562 76.3535 0.949219C76.3535 1.05469 76.3281 1.11914 76.2773 1.14258C76.2305 1.16602 76.1445 1.17773 76.0195 1.17773H75.8965C75.4316 1.17773 75.1367 1.21289 75.0117 1.2832C74.8906 1.34961 74.8027 1.49414 74.748 1.7168L73.1133 8.24414C73.1133 8.25195 73.1055 8.29102 73.0898 8.36133C73.0742 8.42773 73.0664 8.47656 73.0664 8.50781C73.0664 8.53906 73.0703 8.5625 73.0781 8.57812C73.0859 8.59375 73.1172 8.60742 73.1719 8.61914C73.2305 8.62695 73.3184 8.63086 73.4355 8.63086H74.4082C74.7676 8.63086 75.0918 8.57422 75.3809 8.46094C75.6699 8.34766 75.9023 8.2207 76.0781 8.08008C76.2539 7.93945 76.4219 7.74023 76.582 7.48242C76.7422 7.2207 76.8555 7.00781 76.9219 6.84375C76.9922 6.67969 77.0781 6.45508 77.1797 6.16992C77.2266 6.04883 77.2598 5.97461 77.2793 5.94727C77.3027 5.91992 77.3496 5.90625 77.4199 5.90625C77.541 5.90625 77.6016 5.95312 77.6016 6.04688L77.5781 6.11719C77.5625 6.16406 77.5547 6.19336 77.5547 6.20508L76.6406 8.7832C76.6016 8.88867 76.5645 8.95117 76.5293 8.9707C76.498 8.99023 76.4199 9 76.2949 9H71.1562C71.0781 9 71.0215 8.99805 70.9863 8.99414C70.9551 8.99023 70.9258 8.97852 70.8984 8.95898C70.8711 8.93555 70.8574 8.90039 70.8574 8.85352Z" fill="black"/>
</svg>
